HIERARCHY
ROOT Hips
{
	OFFSET -0.001795 -0.223333 0.028219
	CHANNELS 6 Xposition Yposition Zposition Zrotation Yrotation Xrotation 
	JOINT LeftUpLeg
	{
		OFFSET 0.069520 -0.091406 -0.006815
		CHANNELS 3 Zrotation Yrotation Xrotation
		JOINT LeftLeg
		{
			OFFSET 0.034277 -0.375199 -0.004496
			CHANNELS 3 Zrotation Yrotation Xrotation
			JOINT LeftFoot
			{
				OFFSET -0.013596 -0.397961 -0.043693
				CHANNELS 3 Zrotation Yrotation Xrotation
				JOINT LeftToe
				{
					OFFSET 0.026358 -0.055791 0.119288
					CHANNELS 3 Zrotation Yrotation Xrotation
					End Site
					{
						OFFSET 0.000000 0.000000 0.000000
					}
				}
			}
		}
	}
	JOINT RightUpLeg
	{
		OFFSET -0.067670 -0.090522 -0.004320
		CHANNELS 3 Zrotation Yrotation Xrotation
		JOINT RightLeg
		{
			OFFSET -0.038290 -0.382569 -0.008850
			CHANNELS 3 Zrotation Yrotation Xrotation
			JOINT RightFoot
			{
				OFFSET 0.015774 -0.398415 -0.042312
				CHANNELS 3 Zrotation Yrotation Xrotation
				JOINT RightToe
				{
					OFFSET -0.025372 -0.048144 0.123348
					CHANNELS 3 Zrotation Yrotation Xrotation
					End Site
					{
						OFFSET 0.000000 0.000000 0.000000
					}
				}
			}
		}
	}
	JOINT Spine
	{
		OFFSET -0.002533 0.108963 -0.026696
		CHANNELS 3 Zrotation Yrotation Xrotation
		JOINT Spine1
		{
			OFFSET 0.005487 0.135180 0.001092
			CHANNELS 3 Zrotation Yrotation Xrotation
			JOINT Spine2
			{
				OFFSET 0.001457 0.052922 0.025425
				CHANNELS 3 Zrotation Yrotation Xrotation
				JOINT Neck
				{
					OFFSET -0.002778 0.213870 -0.042857
					CHANNELS 3 Zrotation Yrotation Xrotation
					JOINT Head
					{
						OFFSET 0.005152 0.064970 0.051349
						CHANNELS 3 Zrotation Yrotation Xrotation
						End Site
						{
							OFFSET 0.000000 0.000000 0.000000
						}
					}
				}
				JOINT LeftShoulder
				{
					OFFSET 0.078845 0.121749 -0.034090
					CHANNELS 3 Zrotation Yrotation Xrotation
					JOINT LeftArm
					{
						OFFSET 0.090977 0.030469 -0.008868
						CHANNELS 3 Zrotation Yrotation Xrotation
						JOINT LeftForeArm
						{
							OFFSET 0.259612 -0.012772 -0.027456
							CHANNELS 3 Zrotation Yrotation Xrotation
							JOINT LeftHand
							{
								OFFSET 0.249234 0.008986 -0.001171
								CHANNELS 3 Zrotation Yrotation Xrotation
								End Site
								{
									OFFSET 0.000000 0.000000 0.000000
								}
							}
						}
					}
				}
				JOINT RightShoulder
				{
					OFFSET -0.081759 0.118833 -0.038615
					CHANNELS 3 Zrotation Yrotation Xrotation
					JOINT RightArm
					{
						OFFSET -0.096012 0.032551 -0.009143
						CHANNELS 3 Zrotation Yrotation Xrotation
						JOINT RightForeArm
						{
							OFFSET -0.253742 -0.013329 -0.021401
							CHANNELS 3 Zrotation Yrotation Xrotation
							JOINT RightHand
							{
								OFFSET -0.255298 0.007772 -0.005559
								CHANNELS 3 Zrotation Yrotation Xrotation
								End Site
								{
									OFFSET 0.000000 0.000000 0.000000
								}
							}
						}
					}
				}
			}
		}
	}
}
MOTION
Frames: 13
Frame Time: 0.050000
-0.075544 0.783291 0.093220 -2.141086 9.381173 10.680786 14.043991 -1.226247 -51.538679 -12.473065 4.031554 55.501485 22.843983 41.449135 7.279034 0.000000 0.000000 0.000000 0.169829 3.357750 -63.394927 -4.112040 3.518634 57.018393 -2.643946 -6.417144 -0.402772 0.000000 0.000000 0.000000 0.217165 -5.009091 51.564030 -1.334505 0.746547 -4.955482 -2.825753 7.954186 6.592617 8.626842 -3.344437 -14.006015 0.000000 0.000000 0.000000 -2.237025 1.422441 -1.160181 -39.931255 15.289743 -9.554109 -4.978026 -28.064050 1.423894 0.000000 0.000000 0.000000 -3.946215 -12.016345 -4.237144 49.834015 -26.888932 -13.041880 -3.706247 26.005972 0.635228 0.000000 0.000000 0.000000 
-0.074390 0.781869 0.097313 -2.090174 9.397295 9.693287 12.806204 -1.659693 -50.268801 -10.978983 2.963559 56.222521 22.713578 41.614554 5.958029 0.000000 0.000000 0.000000 0.268119 3.408578 -63.177182 -4.423071 3.772207 57.936787 -2.350028 -6.383068 1.877751 0.000000 0.000000 0.000000 -0.628006 -4.585540 51.791202 -1.445619 0.803035 -5.160178 -2.279373 8.695429 8.201573 8.654860 -2.953103 -15.726460 0.000000 0.000000 0.000000 -5.304092 0.301838 -1.530581 -48.009612 8.455775 -9.388194 -1.542772 -30.000858 0.567985 0.000000 0.000000 0.000000 -2.739005 -8.674968 -3.181446 59.407292 -18.992624 -12.540533 -7.886094 26.842974 -0.073388 0.000000 0.000000 0.000000 
-0.071255 0.781112 0.103951 -2.270018 9.729087 8.291675 11.448813 -2.121563 -48.085549 -9.300931 1.607565 56.519910 22.335828 41.874012 3.341201 0.000000 0.000000 0.000000 0.155095 3.185325 -61.499258 -4.065214 3.386662 58.680808 -2.764849 -7.059815 0.886471 0.000000 0.000000 0.000000 0.352782 -5.065154 51.030656 -2.372748 1.155481 -3.393093 -2.754415 9.192827 7.800765 7.004158 -1.679356 -16.635706 0.000000 0.000000 0.000000 -8.086805 -3.740730 -0.669322 -55.297351 1.641313 -8.020757 1.295732 -29.153869 -0.168963 0.000000 0.000000 0.000000 -0.535696 -4.521943 -1.658786 66.016816 -11.907619 -10.401013 -12.066147 26.026078 -0.810232 0.000000 0.000000 0.000000 
-0.065812 0.782583 0.113564 -2.148503 10.237271 5.904014 9.594715 -2.569100 -44.067683 -7.826398 0.242925 56.037794 21.848819 42.116958 -0.010785 0.000000 0.000000 0.000000 0.384979 3.065982 -58.124497 -5.266845 3.914795 58.440406 -2.883581 -7.206149 0.533369 0.000000 0.000000 0.000000 0.653309 -5.257327 50.585626 -3.021070 1.428652 -2.032705 -2.768920 9.560975 7.835787 6.307863 -1.131863 -16.986610 0.000000 0.000000 0.000000 -10.737148 -5.594329 -0.565858 -58.596282 -3.956883 -5.743386 1.408370 -27.486051 -0.181371 0.000000 0.000000 0.000000 0.154871 -1.125098 -0.327727 70.260073 -6.523076 -7.910443 -13.661275 24.047175 -0.976467 0.000000 0.000000 0.000000 
-0.058143 0.788342 0.126593 -2.655094 11.245852 4.691238 8.820894 -2.735837 -41.338654 -6.980532 -0.702047 55.243686 21.342217 41.665592 -1.522269 0.000000 0.000000 0.000000 0.282731 2.663599 -54.745989 -5.602177 3.635421 56.780612 -2.985963 -7.194448 -0.306062 0.000000 0.000000 0.000000 1.478931 -5.658364 49.077222 -3.985926 1.858389 -1.641425 -3.066559 10.001433 6.953743 5.546481 -0.688301 -16.334257 0.000000 0.000000 0.000000 -12.956935 -7.937362 -0.182224 -58.955499 -4.729514 -5.093594 0.773539 -27.409590 -0.077586 0.000000 0.000000 0.000000 2.618473 1.856418 1.112609 71.174899 -4.199297 -6.747235 -12.604894 22.828733 -0.762678 0.000000 0.000000 0.000000 
-0.048685 0.805840 0.142842 -2.574719 13.039223 3.600129 7.223349 -3.017245 -37.266901 -5.785471 -1.874391 51.935289 20.486777 39.724510 -1.064173 0.000000 0.000000 0.000000 -0.936106 1.614613 -50.526450 -5.413452 2.766958 53.854904 -2.745412 -7.178854 2.326370 0.000000 0.000000 0.000000 1.988576 -5.968146 47.215998 -4.591841 2.133887 -1.312295 -3.417992 9.802145 6.683662 5.327507 -0.264280 -17.606122 0.000000 0.000000 0.000000 -14.029969 -8.173359 -0.444474 -58.173826 -5.410407 -4.484098 -1.825816 -24.994549 0.509951 0.000000 0.000000 0.000000 2.664212 3.367566 1.758527 73.373930 -3.014458 -5.959056 -9.426250 21.765171 -0.298545 0.000000 0.000000 0.000000 
-0.037977 0.832199 0.160854 -2.184338 13.727648 3.742915 5.719495 -2.895882 -32.624442 -4.368561 -2.342930 45.740011 19.652575 37.281513 1.184031 0.000000 0.000000 0.000000 -2.479515 0.859381 -47.112400 -5.672754 2.564829 50.092463 -1.042966 -4.203573 5.685456 0.000000 0.000000 0.000000 1.766192 -5.426329 44.228401 -6.048709 2.770074 1.018828 -2.913706 9.583056 4.400927 3.944068 0.404322 -16.803476 0.000000 0.000000 0.000000 -14.331990 -8.610740 -0.352081 -57.628872 -3.802514 -4.938255 -4.717546 -23.735801 1.094729 0.000000 0.000000 0.000000 4.003414 4.511526 2.422067 72.957035 -3.640770 -6.405798 -6.968525 22.041445 0.016896 0.000000 0.000000 0.000000 
-0.027052 0.861124 0.179130 -2.401244 14.184822 2.782658 4.272660 -2.458011 -26.659607 -1.819450 -2.976852 39.028524 18.407290 34.016071 4.756738 0.000000 0.000000 0.000000 -3.864413 0.350979 -43.460524 -3.905477 1.288876 48.290478 -1.547022 -5.598079 7.305400 0.000000 0.000000 0.000000 1.671538 -5.208303 42.929858 -6.472122 2.972521 1.141907 -2.522145 9.713303 4.152232 2.710349 1.367728 -18.370608 0.000000 0.000000 0.000000 -17.047522 -8.457917 -1.096230 -55.755958 -1.043294 -5.595434 -7.466406 -22.102793 1.554849 0.000000 0.000000 0.000000 3.545673 5.560762 2.794571 73.345897 -5.103233 -7.278753 -3.124601 22.470981 0.604587 0.000000 0.000000 0.000000 
-0.017063 0.883063 0.197497 -2.472149 15.223435 2.346013 2.899681 -2.061917 -21.485988 -1.538135 -2.931653 36.208782 15.827951 30.006737 -0.304610 0.000000 0.000000 0.000000 -3.818439 0.236931 -42.218021 -3.296407 0.769002 45.365606 -3.930000 -10.536790 9.531162 0.000000 0.000000 0.000000 1.675247 -5.175945 41.829426 -6.362216 2.897344 2.905905 -1.803050 7.765554 2.984309 2.112979 1.596157 -19.141901 0.000000 0.000000 0.000000 -17.251012 -6.538032 -1.626777 -55.327546 0.567133 -6.261366 -10.573171 -22.232937 2.217442 0.000000 0.000000 0.000000 3.259392 5.758438 2.699871 72.578672 -6.232342 -8.213588 -0.552149 23.636682 1.065092 0.000000 0.000000 0.000000 
-0.008975 0.890676 0.216855 -3.119033 15.592721 2.716013 2.840653 -1.624557 -17.759507 -1.233250 -2.924135 34.753154 14.055688 26.639020 -7.084291 0.000000 0.000000 0.000000 -3.380743 0.328259 -42.568284 -3.296967 0.874490 40.579258 -5.092974 -12.359715 3.559227 0.000000 0.000000 0.000000 2.401671 -5.435361 41.175674 -7.143756 3.258034 2.382028 -0.486740 6.250156 3.946186 -0.790625 3.248443 -22.029366 0.000000 0.000000 0.000000 -15.790739 -4.229224 -1.967740 -56.424414 1.280303 -7.164379 -14.819150 -22.806741 3.184188 0.000000 0.000000 0.000000 2.745699 5.237660 2.329681 72.142243 -7.891195 -9.543896 1.667962 24.676889 1.531870 0.000000 0.000000 0.000000 
-0.002575 0.879611 0.239449 -3.961625 12.591943 3.108512 3.838783 -1.255707 -15.738017 -3.388204 -1.770673 36.212749 15.316433 30.260161 -11.911248 0.000000 0.000000 0.000000 -1.160441 1.751237 -45.100072 -3.191459 1.390491 36.504642 -4.343031 -10.510351 -0.132188 0.000000 0.000000 0.000000 1.325334 -4.823993 43.140027 -7.859923 3.635299 1.699731 -0.943015 7.494944 2.869073 1.162687 2.393295 -23.731717 0.000000 0.000000 0.000000 -13.711963 -2.367083 -2.367903 -57.574802 2.585726 -8.170777 -18.696998 -23.313173 3.977792 0.000000 0.000000 0.000000 6.086051 3.654660 1.990604 69.793595 -9.401482 -10.351716 1.199826 25.658952 1.536955 0.000000 0.000000 0.000000 
0.002262 0.856120 0.266394 -3.585787 12.493861 3.220276 3.318916 -1.140276 -14.043479 -4.619171 -1.448270 38.580126 16.104127 33.504494 -18.304924 0.000000 0.000000 0.000000 -1.044331 1.810241 -47.463038 -2.648737 1.214050 37.135683 -3.368221 -8.177870 0.130292 0.000000 0.000000 0.000000 1.161957 -5.057447 45.047468 -7.769366 3.567635 -0.100353 -1.498906 6.720059 4.315228 1.845610 2.291266 -27.225328 0.000000 0.000000 0.000000 -13.948518 -2.699984 -2.102162 -56.652466 2.358906 -7.982874 -21.490653 -24.262706 4.792351 0.000000 0.000000 0.000000 6.358313 3.463176 1.872496 70.233992 -12.008507 -12.218757 1.668875 27.070406 1.730588 0.000000 0.000000 0.000000 
0.007067 0.823955 0.299492 -3.966618 11.975474 1.934199 3.370098 -1.058887 -13.327716 -4.968725 -1.770938 44.516084 17.301163 38.564522 -21.588977 0.000000 0.000000 0.000000 -0.078711 2.338854 -49.527142 -1.673385 0.755339 44.961592 -3.492683 -8.259444 -1.012211 0.000000 0.000000 0.000000 0.864244 -5.401447 48.529561 -7.868046 3.615979 -1.242768 -2.130623 6.874704 5.096550 2.632473 2.086968 -29.361739 0.000000 0.000000 0.000000 -12.847032 -1.817069 -2.197840 -57.392566 -0.097477 -7.167643 -21.697783 -22.861936 4.570591 0.000000 0.000000 0.000000 9.453365 3.317554 2.043760 69.698093 -11.947303 -12.532122 -1.029240 26.600663 1.151986 0.000000 0.000000 0.000000 
